<svg id="Layer_1" xmlns="http://www.w3.org/2000/svg" viewBox="0 0 165 40"><style>.st0{stroke:#000;stroke-width:.3;stroke-miterlimit:10}</style><path class="st0" d="M16.8 3.3c4.6 0 8.5 1.6 11.6 4.8 3.1 3.2 4.7 7.2 4.7 12s-1.6 8.8-4.7 12c-3.1 3.2-7 4.8-11.6 4.8H3.3V3.3h13.5zm0 26.2c2.7 0 4.8-.9 6.5-2.6 1.6-1.7 2.5-4 2.5-6.8s-.8-5.1-2.5-6.8c-1.6-1.7-3.8-2.6-6.5-2.6H11v18.8h5.8zM45.1 29.5h13.4v7.4H37.4V3.3h20.9v7.4H45.1v5.6h12v7.3h-12v5.9zM70.9 36.9L60 3.3h8.4L75.8 28l7.4-24.7h8.4L80.7 36.9h-9.8zM94.5 3.3h7.7v33.6h-7.7V3.3zM124 37.6c-5 0-9.2-1.7-12.5-5-3.3-3.3-5-7.5-5-12.5s1.7-9.1 5-12.5c3.3-3.3 7.5-5 12.5-5 3 0 5.8.7 8.4 2.1s4.6 3.3 6 5.7l-6.6 3.8c-.7-1.3-1.8-2.3-3.2-3-1.4-.7-2.9-1.1-4.6-1.1-3 0-5.4.9-7.1 2.7-1.8 1.8-2.7 4.2-2.7 7.2s.9 5.4 2.7 7.2c1.8 1.8 4.2 2.7 7.1 2.7 1.7 0 3.2-.4 4.6-1.1s2.4-1.7 3.1-3l6.6 3.8c-1.4 2.4-3.4 4.3-6 5.7-2.5 1.6-5.3 2.3-8.3 2.3zM149.7 29.5h13.4v7.4H142V3.3h20.9v7.4h-13.2v5.6h12v7.3h-12v5.9z"/></svg>