<svg width="160" height="160" viewBox="0 0 160 160" fill="#363636">
<g>
	<path class="st0" d="M101.8,40c0-0.7-0.6-1.5-1.3-1.5h-43c-0.7,0-1.4,0.8-1.4,1.5v3.5h45.7L101.8,40L101.8,40z M102.7,120.3h-9.6
		v-10.4h-7v2.5H67.3c-0.5-1.3-1.8-2.1-3.2-2.1H52c-1.9,0-3.6,1.6-3.6,3.5v3c0,1.9,1.6,3.5,3.6,3.5h12c1.5,0,2.8-0.9,3.3-2.3h18.8
		v2.3h-9.5c-0.5,0-1,0.4-1,1v3.2c0,0.5,0.5,1,1,1h26.1c0.5,0,0.9-0.5,0.9-1v-3.2C103.6,120.7,103.2,120.3,102.7,120.3z M109.2,50.9
		c-0.9-3-3.6-5.1-6.8-5H55.6c-3.9,0-7.1,3.1-7.1,7v46.9c0,3.9,3.3,7.1,7.1,7.1h46.7c3.9,0,7.1-3.2,7.1-7.1V89.4
		c6.3-4.4,10-11.5,10-19.2C119.5,62.2,115.4,55.1,109.2,50.9z M60.7,100.7c-3.3,0-5.9-2.7-5.9-5.9c0-3.3,2.6-5.9,5.9-5.9
		c3.3,0,5.9,2.7,5.9,5.9C66.6,98,64,100.7,60.7,100.7z M66.7,68c0,0.8-0.6,1.4-1.4,1.4c0,0,0,0,0,0h-8.9c-0.8,0-1.4-0.6-1.4-1.4
		c0,0,0,0,0,0V53.9c0-0.8,0.6-1.4,1.4-1.4c0,0,0,0,0,0h8.9c0.8,0,1.4,0.6,1.4,1.4c0,0,0,0,0,0L66.7,68L66.7,68z M96.3,90.4
		c-11.1,0-20.1-9-20.1-20.1s9-20.1,20.1-20.1s20.1,9,20.1,20.1S107.3,90.4,96.3,90.4z"/>
	<ellipse class="st0" cx="96.3" cy="70.2" rx="12.2" ry="12.2"/>
	<circle class="st0" cx="80.1" cy="70.2" r="1.4"/>
	<circle class="st0" cx="112.5" cy="70.2" r="1.4"/>
	<circle class="st0" cx="87.6" cy="56.5" r="1.4"/>
	<ellipse class="st0" cx="104.9" cy="84" rx="1.4" ry="1.4"/>
	<circle class="st0" cx="104.2" cy="56.1" r="1.4"/>
	<circle class="st0" cx="88.3" cy="84.4" r="1.4"/>
</g>
</svg>
