<svg width="160" height="160" viewBox="0 0 160 160" fill="#363636">
<g>
	<path class="st0" d="M108.5,65.2H107v-4.6c0-5.1-4.1-9.2-9.1-9.2H63.1c-5,0-9.1,4.1-9.1,9.2v42.9c0,5.1,4.1,9.2,9.1,9.2h34.8
		c5,0,9.1-4.1,9.1-9.2V100h1.5c0.4,0,0.8-0.3,0.8-0.8V85.5c0-0.4-0.3-0.8-0.8-0.8H107v-8.8h1.5c0.8,0,1.5-0.7,1.5-1.5v-7.7
		C110,65.9,109.3,65.2,108.5,65.2z M88.1,62.1c2.9,0,5.3,2.4,5.3,5.4s-2.4,5.4-5.3,5.4c-2.9,0-5.3-2.4-5.3-5.4S85.2,62.1,88.1,62.1z
		 M72.9,62.1c2.9,0,5.3,2.4,5.3,5.4s-2.4,5.4-5.3,5.4c-2.9,0-5.3-2.4-5.3-5.4S70,62.1,72.9,62.1z M59.3,82.4c0-3,2.4-5.4,5.3-5.4
		c2.9,0,5.3,2.4,5.3,5.4s-2.4,5.4-5.3,5.4C61.7,87.8,59.3,85.4,59.3,82.4z M72.9,101.9c-2.9,0-5.3-2.4-5.3-5.4s2.4-5.4,5.3-5.4
		c2.9,0,5.3,2.4,5.3,5.4S75.9,101.9,72.9,101.9z M74.4,82c0-3.4,2.7-6.1,6.1-6.1c3.3,0,6.1,2.7,6.1,6.1s-2.7,6.1-6.1,6.1
		C77.1,88.1,74.4,85.4,74.4,82z M88.1,101.9c-2.9,0-5.3-2.4-5.3-5.4s2.4-5.4,5.3-5.4s5.3,2.4,5.3,5.4S91,101.9,88.1,101.9z
		 M96.4,87.8c-2.9,0-5.3-2.4-5.3-5.4s2.4-5.4,5.3-5.4c2.9,0,5.3,2.4,5.3,5.4C101.7,85.4,99.3,87.8,96.4,87.8z M63.6,48.3h33.7
		c0.8,0,1.4-0.7,1.3-1.5L97,36l0,0c-0.3-1.7-1.8-3-3.5-3h-26c-1.7,0-3.3,1.4-3.5,3l-1.6,10.8C62.2,47.6,62.8,48.3,63.6,48.3z
		 M97.3,115.7H63.6c-0.8,0-1.4,0.7-1.3,1.5L64,128c0.3,1.7,1.8,3,3.5,3h26c1.7,0,3.3-1.4,3.5-3v0l1.6-10.8
		C98.8,116.4,98.2,115.7,97.3,115.7z"/>
</g>
</svg>
