<svg width="160" height="160" viewBox="0 0 160 160" fill="#363636">
<g>
	<path class="st0" d="M125.3,53.7c0.8,1.4,1.2,3.1,1.2,4.8v21.1c0,4.6-3.1,8.5-7.2,9.9c-1.3,4-3.8,7.9-8.1,10.4
		c-8.7,5.2-31.1,4.8-31.2,4.8c-0.1,0-22.5,0.4-31.2-4.8c-4.2-2.5-6.7-6.3-8-10.3c-4.4-1.2-7.8-5.3-7.8-10.1V58.5
		c0-1.7,0.4-3.3,1.1-4.7c-3.7,0.9-7.8,2.7-7.8,6.2v30c0,10.3,11.8,24.4,53.7,24.4c41.8,0,53.7-14.2,53.7-24.4v-30
		C133.7,56.4,129.1,54.6,125.3,53.7z"/>
	<path class="st0" d="M46.9,88.1h65.5c5.6,0,10.1-4.5,10.1-10.1V59.6c0-5.6-4.5-10.1-10.1-10.1H46.9c-5.6,0-10.1,4.5-10.1,10.1V78
		C36.8,83.6,41.3,88.1,46.9,88.1z M110,59.1c0.9,0,1.6,0.7,1.6,1.5c0,0.9-0.7,1.6-1.5,1.6c0,0-0.1,0-0.1,0c-0.9,0-1.6-0.7-1.5-1.6
		C108.5,59.8,109.2,59.1,110,59.1z M110,63.2c0.9,0,1.6,0.7,1.6,1.6c0,0.9-0.7,1.6-1.6,1.6l0,0c-0.9,0-1.6-0.7-1.6-1.6
		C108.5,63.9,109.2,63.2,110,63.2z M110,67.2c0.9,0,1.6,0.7,1.6,1.6s-0.7,1.6-1.6,1.6c-0.9,0-1.6-0.7-1.6-1.6
		C108.5,67.9,109.2,67.2,110,67.2C110,67.2,110,67.2,110,67.2z M110,71c0.9,0,1.6,0.7,1.6,1.6c0,0.9-0.7,1.6-1.6,1.6
		c-0.9,0-1.6-0.7-1.6-1.6C108.5,71.7,109.2,71,110,71z M110,75.1c0.9,0,1.6,0.7,1.6,1.6s-0.7,1.6-1.6,1.6s-1.6-0.7-1.6-1.6
		S109.2,75.1,110,75.1L110,75.1z M106,59.1c0.9,0,1.6,0.7,1.6,1.6c0,0.9-0.7,1.6-1.6,1.6s-1.6-0.7-1.6-1.6
		C104.4,59.8,105.1,59.1,106,59.1z M106,75.1c0.9,0,1.6,0.7,1.6,1.5c0,0.9-0.7,1.6-1.5,1.6c0,0-0.1,0-0.1,0c-0.9,0-1.5-0.7-1.5-1.6
		C104.5,75.7,105.2,75.1,106,75.1z M102,59.1c0.9,0,1.6,0.7,1.6,1.6c0,0.9-0.7,1.6-1.6,1.6c-0.9,0-1.6-0.7-1.6-1.6
		C100.4,59.8,101.1,59.1,102,59.1z M102,63.2c0.9,0,1.6,0.7,1.6,1.5c0,0.9-0.7,1.6-1.5,1.6c0,0-0.1,0-0.1,0c-0.9,0-1.6-0.7-1.5-1.6
		C100.5,63.8,101.1,63.2,102,63.2z M102,67.2c0.9,0,1.6,0.7,1.6,1.6c0,0.9-0.7,1.6-1.6,1.6l0,0c-0.9,0-1.6-0.7-1.6-1.6
		C100.4,67.9,101.1,67.2,102,67.2z M102,71c0.9,0,1.6,0.7,1.6,1.6c0,0.9-0.7,1.6-1.6,1.6s-1.6-0.7-1.6-1.6
		C100.4,71.7,101.1,71,102,71z M102,75.1c0.9,0,1.6,0.7,1.6,1.6s-0.7,1.6-1.6,1.6s-1.6-0.7-1.6-1.6S101.1,75.1,102,75.1L102,75.1z
		 M94.3,59.1c0.9,0,1.6,0.7,1.6,1.6c0,0.9-0.7,1.6-1.6,1.6s-1.6-0.7-1.6-1.6C92.7,59.8,93.4,59.1,94.3,59.1
		C94.3,59.1,94.3,59.1,94.3,59.1z M94.3,67.2c0.9,0,1.6,0.7,1.6,1.6s-0.7,1.6-1.6,1.6c-0.9,0-1.6-0.7-1.6-1.6
		C92.7,67.9,93.4,67.2,94.3,67.2C94.3,67.2,94.3,67.2,94.3,67.2z M94.3,71.1c0.9,0,1.6,0.6,1.6,1.5s-0.6,1.6-1.5,1.6
		c0,0-0.1,0-0.1,0c-0.9,0-1.5-0.8-1.5-1.6C92.8,71.8,93.5,71.1,94.3,71.1z M94.3,75.1c0.9,0,1.6,0.7,1.6,1.5s-0.7,1.6-1.5,1.6
		c0,0-0.1,0-0.1,0c-0.9,0-1.5-0.7-1.5-1.6C92.8,75.7,93.5,75.1,94.3,75.1z M90.3,59.1c0.9,0,1.6,0.7,1.6,1.6c0,0.9-0.7,1.6-1.6,1.6
		c-0.9,0-1.6-0.7-1.6-1.6C88.7,59.8,89.4,59.1,90.3,59.1L90.3,59.1z M90.3,67.2c0.9,0,1.6,0.7,1.6,1.5c0,0.9-0.7,1.6-1.5,1.6
		c0,0-0.1,0-0.1,0c-0.9,0-1.6-0.7-1.5-1.6C88.8,67.9,89.4,67.2,90.3,67.2z M90.3,75.1c0.9,0,1.6,0.7,1.6,1.5c0,0.9-0.7,1.6-1.5,1.6
		c0,0-0.1,0-0.1,0c-0.9,0-1.6-0.7-1.5-1.6C88.8,75.8,89.4,75.1,90.3,75.1z M86.2,59.1c0.9,0,1.6,0.7,1.5,1.6c0,0.8-0.7,1.5-1.5,1.5
		c-0.9,0-1.6-0.7-1.6-1.6c0,0,0,0,0,0C84.7,59.8,85.4,59.1,86.2,59.1C86.2,59.1,86.2,59.1,86.2,59.1z M86.2,63.2
		c0.9,0,1.6,0.6,1.7,1.5s-0.6,1.6-1.5,1.7c-0.1,0-0.1,0-0.2,0c-0.9,0-1.5-0.8-1.5-1.7C84.8,63.8,85.4,63.2,86.2,63.2z M86.2,67.2
		c0.9,0,1.6,0.7,1.6,1.6s-0.7,1.6-1.6,1.6c-0.9,0-1.6-0.7-1.6-1.6C84.7,67.9,85.4,67.2,86.2,67.2z M86.2,75.1c0.9,0,1.5,0.8,1.5,1.6
		c0,0.8-0.7,1.5-1.5,1.5c-0.9,0-1.6-0.7-1.5-1.6C84.7,75.8,85.4,75.1,86.2,75.1z M77.9,59.1c0.9,0,1.6,0.7,1.6,1.5
		c0,0.9-0.7,1.6-1.5,1.6c0,0-0.1,0-0.1,0c-0.9,0-1.6-0.7-1.5-1.6C76.4,59.8,77.1,59.1,77.9,59.1z M77.9,63.2c0.9,0,1.6,0.7,1.6,1.6
		c0,0.9-0.7,1.6-1.6,1.6l0,0c-0.9,0-1.6-0.7-1.6-1.6C76.4,63.9,77.1,63.2,77.9,63.2z M77.9,67.2c0.9,0,1.6,0.7,1.6,1.6
		c0,0.9-0.7,1.6-1.6,1.6c-0.9,0-1.6-0.7-1.6-1.6C76.4,67.9,77.1,67.2,77.9,67.2z M77.9,71.1c0.9,0,1.6,0.7,1.6,1.6
		c0,0.9-0.7,1.6-1.6,1.6c-0.9,0-1.6-0.7-1.5-1.6C76.4,71.8,77.1,71.1,77.9,71.1z M77.9,75.1c0.9,0,1.6,0.7,1.6,1.6s-0.7,1.6-1.6,1.6
		s-1.6-0.7-1.6-1.6S77.1,75.1,77.9,75.1L77.9,75.1z M73.9,63.2c0.9,0,1.6,0.7,1.6,1.6s-0.7,1.6-1.6,1.6c-0.9,0-1.6-0.7-1.6-1.6
		C72.3,63.9,73,63.2,73.9,63.2z M65.4,62.9c0.9,0,1.6,0.6,1.7,1.5c0,0.9-0.6,1.6-1.5,1.7c-0.1,0-0.1,0-0.2,0c-0.9,0-1.5-0.8-1.5-1.7
		C64,63.6,64.6,63,65.4,62.9z M65.4,67c0.9,0,1.6,0.7,1.6,1.6c0,0.9-0.7,1.6-1.6,1.6l0,0c-0.9,0-1.6-0.7-1.6-1.6
		C63.8,67.7,64.5,67,65.4,67z M61.4,58.9c0.9,0,1.6,0.7,1.6,1.6c0,0.9-0.7,1.6-1.6,1.6s-1.6-0.7-1.6-1.6
		C59.8,59.6,60.5,58.9,61.4,58.9L61.4,58.9z M61.4,62.9c0.9,0,1.6,0.7,1.6,1.5c0,0.9-0.7,1.6-1.5,1.6c0,0-0.1,0-0.1,0
		c-0.9,0-1.6-0.7-1.5-1.6C59.9,63.6,60.5,63,61.4,62.9z M61.4,67c0.9,0,1.6,0.7,1.6,1.6s-0.7,1.6-1.6,1.6l0,0
		c-0.9,0-1.6-0.7-1.6-1.6S60.5,67,61.4,67z M61.4,71c0.9,0,1.6,0.7,1.6,1.5c0,0.9-0.7,1.6-1.5,1.6c0,0-0.1,0-0.1,0
		c-0.9,0-1.6-0.7-1.5-1.6C59.9,71.7,60.5,71,61.4,71z M57.1,62.9c0.9,0,1.6,0.7,1.6,1.6c0,0.9-0.7,1.6-1.6,1.6c0,0,0,0,0,0
		c-0.9,0-1.6-0.7-1.6-1.6C55.5,63.6,56.2,62.9,57.1,62.9z M57.1,67c0.9,0,1.6,0.7,1.6,1.5c0,0.9-0.7,1.6-1.5,1.6c0,0-0.1,0-0.1,0
		c-0.9,0-1.6-0.7-1.5-1.6C55.6,67.7,56.3,67,57.1,67z M57.1,71c0.9,0,1.6,0.7,1.6,1.6c0,0.9-0.7,1.6-1.6,1.6c-0.9,0-1.6-0.7-1.6-1.6
		C55.5,71.7,56.2,71,57.1,71z M57.1,75.1c0.9,0,1.6,0.7,1.6,1.6s-0.7,1.6-1.6,1.6c-0.9,0-1.6-0.7-1.6-1.6
		C55.5,75.8,56.2,75.1,57.1,75.1C57.1,75.1,57.1,75.1,57.1,75.1z M52.6,58.9L52.6,58.9z M52.6,62.9c0.9,0,1.6,0.7,1.6,1.6
		c0,0.9-0.7,1.6-1.6,1.6c-0.9,0-1.6-0.7-1.6-1.6C51.1,63.6,51.8,62.9,52.6,62.9z M52.6,67c0.9,0,1.6,0.6,1.6,1.5
		c0,0.9-0.6,1.6-1.5,1.6c0,0-0.1,0-0.1,0c-0.9,0-1.5-0.8-1.5-1.6C51.2,67.7,51.8,67,52.6,67z M52.6,71L52.6,71z M48.6,62.9
		c0.9,0,1.6,0.6,1.7,1.5s-0.6,1.6-1.5,1.7c-0.1,0-0.1,0-0.2,0c-0.9,0-1.5-0.8-1.5-1.7C47.2,63.6,47.8,63,48.6,62.9z M48.6,67
		c0.9,0,1.6,0.7,1.6,1.6c0,0.9-0.7,1.6-1.6,1.6c-0.9,0-1.6-0.7-1.6-1.6C47,67.7,47.7,67,48.6,67z"/>
</g>
</svg>
