<svg width="160" height="160" viewBox="0 0 160 160" fill="#363636">
<g>
	<path class="st0" d="M119.7,45H40.3c-1.8,0-3.2,1.4-3.2,3.2v46.4c0,1.8,1.4,3.2,3.2,3.2l0,0h79.5c1.8,0,3.2-1.4,3.2-3.2l0,0V48.2
		C122.9,46.4,121.5,45,119.7,45L119.7,45z M45.3,78.2h-0.2c-1.8,0-3.2-1.4-3.2-3.2v-7.3c0-1.8,1.4-3.2,3.2-3.2l0,0h0.2V78.2z
		 M106.5,93.4H50.3v-44h56.3L106.5,93.4L106.5,93.4z M115.3,75.6c-2.3,0-4.1-1.9-4.1-4.1s1.9-4.1,4.1-4.1c2.3,0,4.1,1.9,4.1,4.1
		S117.6,75.6,115.3,75.6z M68.4,41h23.2v2.8H68.4V41z M83.5,105.9v-3h8v-2.8H68.4v2.8h8v35.2c-2.2,1-3.6,3.1-3.6,5.6V158h14.3v-14.3
		c0-2.4-1.4-4.6-3.6-5.6v-28h4.8l5.1,1.2v-6.7l-5.1,1.2h-4.8V105.9z"/>
</g>
</svg>
